<svg height='100px' width='100px'  fill="#ffffff" xmlns:x="http://ns.adobe.com/Extensibility/1.0/" xmlns:i="http://ns.adobe.com/AdobeIllustrator/10.0/" xmlns:graph="http://ns.adobe.com/Graphs/1.0/" xmlns="http://www.w3.org/2000/svg" xmlns:xlink="http://www.w3.org/1999/xlink" version="1.1" x="0px" y="0px" viewBox="0 0 100 100" enable-background="new 0 0 100 100" xml:space="preserve"><g><g i:extraneous="self"><path d="M64.68,53.614c-0.015,1.508-0.716,3.001-0.716,3.001c-2.516,5.174-7.823,8.52-13.963,8.52    s-11.448-3.346-13.963-8.52c0,0-0.7-1.493-0.716-3.001c-0.838-0.016-1.696-0.034-2.564-0.055    c-0.296,0.913-0.335,1.863-0.224,2.778c0,0,1.671,13.894,17.468,13.894l0,0c15.797,0,17.468-13.894,17.468-13.894    c0.111-0.915,0.071-1.866-0.224-2.778C66.376,53.58,65.52,53.598,64.68,53.614z M59.874,53.687    c-3.148,0.036-5.775,0.044-7.44,0.044h-0.001c-1.53,0-2.426-0.006-2.436-0.006c-0.006,0-0.9,0.006-2.427,0.006    c-1.666,0-4.292-0.008-7.441-0.044c1.541,3.948,5.379,6.747,9.873,6.747S58.333,57.635,59.874,53.687z M50.001,39.24    c-5.853,0-10.598,4.745-10.598,10.598c0,0.096,0.005,0.193,0.007,0.289c2.913,0.071,6.412,0.117,10.59,0.117    s7.677-0.046,10.59-0.117c0.003-0.096,0.007-0.192,0.007-0.289C60.599,43.984,55.854,39.24,50.001,39.24z M61.353,48.944    l-0.001-0.023c-0.227-2.845-1.508-5.485-3.608-7.433c-2.111-1.959-4.861-3.038-7.743-3.038l0,0c-2.882,0-5.631,1.078-7.743,3.038    c-2.1,1.948-3.381,4.588-3.608,7.433l-0.001,0.023c0,0.027-0.116,0.812-0.778,0.969l-0.576,0.155    c0.301,0.009,0.612,0.019,0.928,0.028c0.713-0.438,0.706-1.152,0.706-1.152c0.456-5.717,5.239-10.213,11.073-10.213    s10.617,4.497,11.073,10.213c0,0-0.008,0.714,0.706,1.152c0.316-0.009,0.627-0.018,0.928-0.028l-0.576-0.155    C61.469,49.756,61.353,48.971,61.353,48.944z M86.157,48.294c0,0-11.016,0.053-14.258-5.085    c-7.217-11.444-14.992-13.44-21.898-13.44s-14.681,1.996-21.899,13.439c-3.241,5.139-14.258,5.085-14.258,5.085    s-15.878,0.906-5.084,2.925S50,53.028,50,53.028s30.445,0.209,41.24-1.81S86.157,48.294,86.157,48.294z M72.716,50.174    c-3.085,0.338-10.122,0.766-22.714,0.766l0,0c-12.594,0-19.631-0.428-22.714-0.766c-3.065-0.336,2.09-1.602,2.09-1.602    c2.856-0.383,4.04-3.477,4.04-3.477c5.466-11.914,16.586-11.078,16.586-11.078s11.12-0.835,16.586,11.078    c0,0,1.184,3.094,4.04,3.477C70.627,48.572,75.78,49.837,72.716,50.174z"></path></g></g></svg>
